<svg width="892" height="392" viewBox="0 0 892 392" fill="none" xmlns="http://www.w3.org/2000/svg">
<path d="M459.11 1C479.11 169 591.109 115 761.109 169C888.007 209.309 896.442 349.667 889.109 391" stroke="white"/>
<path d="M459.11 1C479.11 169 591.109 115 761.109 169C888.007 209.309 896.442 349.667 889.109 391" stroke="#FF0000"/>
<path d="M433 1C413 169 301 115 131 169C4.10163 209.309 -4.33349 349.667 2.99984 391" stroke="white"/>
<path d="M433 1C413 169 301 115 131 169C4.10163 209.309 -4.33349 349.667 2.99984 391" stroke="#02F0FF"/>
<path d="M445.891 1C445.891 99 381 197 299 209C167.257 228.279 121.667 347.667 129 389" stroke="white"/>
<path d="M445.891 1C445.891 99 381 197 299 209C167.257 228.279 121.667 347.667 129 389" stroke="#0047FF"/>
<path d="M446 1C446 99 510.89 197 592.89 209C724.632 228.279 770.222 347.667 762.889 389" stroke="white"/>
<path d="M446 1C446 99 510.89 197 592.89 209C724.632 228.279 770.222 347.667 762.889 389" stroke="#0047FF"/>
</svg>
