<svg width="3644" height="2148" viewBox="0 0 3644 2148" fill="none" xmlns="http://www.w3.org/2000/svg">
<g clip-path="url(#clip0_7_24)">
<mask id="path-1-inside-1_7_24" fill="white">
<path d="M2676 -90C2676 48.9385 2703.37 186.517 2756.54 314.879C2809.7 443.242 2887.64 559.875 2985.88 658.119C3084.13 756.363 3200.76 834.295 3329.12 887.465C3457.48 940.634 3595.06 968 3734 968L3734 -90L2676 -90Z"/>
</mask>
<path d="M2676 -90C2676 48.9385 2703.37 186.517 2756.54 314.879C2809.7 443.242 2887.64 559.875 2985.88 658.119C3084.13 756.363 3200.76 834.295 3329.12 887.465C3457.48 940.634 3595.06 968 3734 968L3734 -90L2676 -90Z" stroke="white" stroke-width="4" mask="url(#path-1-inside-1_7_24)"/>
<mask id="path-2-inside-2_7_24" fill="white">
<path d="M2902 -90C2902 19.1284 2923.51 127.188 2965.29 228.01C3007.08 328.831 3068.33 420.44 3145.54 497.606C3222.75 574.771 3314.42 635.982 3415.3 677.744C3516.18 719.506 3624.31 741 3733.5 741L3733.5 -90L2902 -90Z"/>
</mask>
<path d="M2902 -90C2902 19.1284 2923.51 127.188 2965.29 228.01C3007.08 328.831 3068.33 420.44 3145.54 497.606C3222.75 574.771 3314.42 635.982 3415.3 677.744C3516.18 719.506 3624.31 741 3733.5 741L3733.5 -90L2902 -90Z" stroke="white" stroke-width="4" mask="url(#path-2-inside-2_7_24)"/>
<mask id="path-3-inside-3_7_24" fill="white">
<path d="M3128 -90C3128 -10.419 3143.67 68.3828 3174.13 141.906C3204.58 215.429 3249.22 282.234 3305.49 338.507C3361.77 394.779 3428.57 439.417 3502.09 469.871C3575.62 500.325 3654.42 516 3734 516V-90L3128 -90Z"/>
</mask>
<path d="M3128 -90C3128 -10.419 3143.67 68.3828 3174.13 141.906C3204.58 215.429 3249.22 282.234 3305.49 338.507C3361.77 394.779 3428.57 439.417 3502.09 469.871C3575.62 500.325 3654.42 516 3734 516V-90L3128 -90Z" stroke="white" stroke-width="4" mask="url(#path-3-inside-3_7_24)"/>
<mask id="path-4-inside-4_7_24" fill="white">
<path d="M3312 -90C3312 -34.5822 3322.92 20.293 3344.12 71.4924C3365.33 122.692 3396.41 169.213 3435.6 208.399C3474.79 247.585 3521.31 278.67 3572.51 299.877C3623.71 321.085 3678.58 332 3734 332V-90L3312 -90Z"/>
</mask>
<path d="M3312 -90C3312 -34.5822 3322.92 20.293 3344.12 71.4924C3365.33 122.692 3396.41 169.213 3435.6 208.399C3474.79 247.585 3521.31 278.67 3572.51 299.877C3623.71 321.085 3678.58 332 3734 332V-90L3312 -90Z" stroke="white" stroke-width="4" mask="url(#path-4-inside-4_7_24)"/>
</g>
<defs>
<clipPath id="clip0_7_24">
<rect width="3644" height="2148" fill="white"/>
</clipPath>
</defs>
</svg>
